<?xml version="1.0" encoding="utf-8"?>
<!-- Generator: Adobe Illustrator 23.0.3, SVG Export Plug-In . SVG Version: 6.00 Build 0)  -->
<svg version="1.1" id="Layer_1" xmlns="http://www.w3.org/2000/svg" xmlns:xlink="http://www.w3.org/1999/xlink" x="0px" y="0px"
	 viewBox="0 0 1920 1170" style="enable-background:new 0 0 1920 1170;" xml:space="preserve">
<style type="text/css">
	.st0{fill:#80E4FE;}
</style>
<g>
	<path id="Path_46" class="st0" d="M1590.9,483.6c4.2,51.6,42.6,93.8,93.6,102.8C1633.5,577.4,1595.1,535.2,1590.9,483.6z"/>
	<path id="Path_47" class="st0" d="M1683.1,675.6c0.1-0.4,0.1-0.8,0.2-1.3C1683.3,674.8,1683.2,675.2,1683.1,675.6z"/>
	<path id="Path_48" class="st0" d="M1490.3,85.4c62.6,0.1,113.4,50.8,113.5,113.4c0,0,0-0.1,0-0.1c-0.1-62.7-50.9-113.4-113.5-113.5
		c-62.7,0.1-113.4,50.8-113.5,113.5c0,0,0,0.1,0,0.1C1376.9,136.2,1427.6,85.4,1490.3,85.4z"/>
	<path id="Path_49" class="st0" d="M1682.1,680c0.1-0.6,0.3-1.1,0.4-1.7C1682.4,678.9,1682.3,679.4,1682.1,680z"/>
	<path id="Path_50" class="st0" d="M1661.6,721.6c-0.8,1-1.6,1.9-2.4,2.8C1660,723.5,1660.8,722.6,1661.6,721.6z"/>
	<path id="Path_51" class="st0" d="M1683.9,671.4c0.1-0.5,0.1-0.9,0.1-1.3C1684,670.6,1683.9,671,1683.9,671.4z"/>
	<path id="Path_52" class="st0" d="M1680.9,684.4c0.3-0.8,0.5-1.7,0.7-2.5C1681.4,682.8,1681.2,683.6,1680.9,684.4z"/>
	<path id="Path_53" class="st0" d="M1684.3,667.4c0.1-1.3,0.2-2.6,0.2-3.8C1684.5,664.8,1684.4,666.1,1684.3,667.4z"/>
	<path id="Path_54" class="st0" d="M1704,361.1L1704,361.1c7.7,0,15.3,0.8,22.8,2.3C1719.4,361.9,1711.7,361.1,1704,361.1z"/>
	<path id="Path_55" class="st0" d="M1753.2,372.3c6.6,3.2,12.9,7,18.7,11.4C1766,379.3,1759.8,375.5,1753.2,372.3z"/>
	<path id="Path_56" class="st0" d="M1726.9,363.4c3.7,0.8,7.3,1.7,10.9,2.8C1734.2,365.1,1730.6,364.2,1726.9,363.4z"/>
	<path id="Path_57" class="st0" d="M1817.6,474.6c0,55.4-39.9,101.5-92.5,111.5C1778.7,575.9,1817.5,529.1,1817.6,474.6
		c0-33.9-15.2-66-41.4-87.5C1802.4,408.6,1817.6,440.7,1817.6,474.6z"/>
	<path id="Path_58" class="st0" d="M1737.7,366.2c5.3,1.7,10.5,3.7,15.5,6.1C1748.2,369.9,1743,367.9,1737.7,366.2z"/>
	<path id="Path_59" class="st0" d="M1661.8,721.3c7.8-9.5,14.7-23,18.8-36C1676.5,698.4,1669.6,711.9,1661.8,721.3z"/>
	<path id="Path_60" class="st0" d="M1271.7,458.9c62.6,0.1,113.4,50.8,113.5,113.4v-0.1c-0.1-62.7-50.9-113.4-113.5-113.5
		c-62.7,0.1-113.4,50.8-113.5,113.5c0,0,0,0.1,0,0.1C1158.3,509.7,1209.1,459,1271.7,458.9z"/>
	<path id="Path_61" class="st0" d="M1319.3,835l150.3,136.2v-0.2l-150.3-136.2c-15-13.7-28.1-43.4-28.1-63.5v0.2
		C1291.3,791.7,1304.4,821.4,1319.3,835z"/>
	<ellipse id="Ellipse_7" class="st0" cx="1271.7" cy="572.2" rx="72.9" ry="72.9"/>
	<ellipse id="Ellipse_8" class="st0" cx="1704" cy="474.6" rx="72.9" ry="72.9"/>
	<ellipse id="Ellipse_9" class="st0" cx="1490.3" cy="198.7" rx="72.9" ry="72.9"/>
	<path id="Path_63" class="st0" d="M1683.3,674.4c0.2-1,0.4-2,0.5-3C1683.7,672.4,1683.5,673.4,1683.3,674.4z"/>
	<path id="Path_64" class="st0" d="M1681.6,681.9c0.2-0.6,0.4-1.3,0.5-1.9C1682,680.6,1681.8,681.3,1681.6,681.9z"/>
	<path id="Path_65" class="st0" d="M1684,670.1c0.1-0.9,0.2-1.8,0.3-2.7C1684.2,668.3,1684.1,669.2,1684,670.1z"/>
	<path id="Path_66" class="st0" d="M1680.6,685.4c0.1-0.3,0.2-0.6,0.3-0.9C1680.8,684.7,1680.7,685.1,1680.6,685.4z"/>
	<path id="Path_67" class="st0" d="M1682.5,678.3c0.2-0.9,0.4-1.8,0.6-2.7C1683,676.5,1682.7,677.4,1682.5,678.3z"/>
	<path id="Path_68" class="st0" d="M1661.6,721.6c0.1-0.1,0.2-0.2,0.2-0.3C1661.7,721.4,1661.6,721.5,1661.6,721.6z"/>
	<path id="Path_69" class="st0" d="M1623.8,394.4c2.6-2.6,5.3-5,8.1-7.3C1629.1,389.4,1626.4,391.8,1623.8,394.4z"/>
	<path id="Path_70" class="st0" d="M1250.7,771.4v0.2c0,31.2,18.1,72.3,41.3,93.4l177.6,160.9L1292,864.8
		C1268.8,843.5,1250.7,802.6,1250.7,771.4z"/>
	<path id="Path_71" class="st0" d="M1376.7,198.8L1376.7,198.8c0.1,54.8,39.1,101.7,92.9,111.7v-0.2
		C1415.9,300.3,1376.9,253.4,1376.7,198.8z"/>
	<path id="Path_72" class="st0" d="M1510.2,310.3v0.2c54.1-9.7,93.5-56.7,93.6-111.7v-0.1C1603.7,253.7,1564.3,300.7,1510.2,310.3z"
		/>
	<path id="Path_73" class="st0" d="M1291.3,684.1v0.2c54.3-9.5,93.9-56.7,94-111.8v-0.1C1385.2,628.2,1344.6,674.7,1291.3,684.1z"/>
	<path id="Path_74" class="st0" d="M1659.1,724.4c-0.9,1-1.8,1.9-2.7,2.7C1657.3,726.2,1658.2,725.3,1659.1,724.4z"/>
	<path id="Path_75" class="st0" d="M1158.2,572.3L1158.2,572.3c0,54.6,38.9,101.4,92.5,111.6v-0.2
		C1198.1,673.7,1158.2,627.6,1158.2,572.3z"/>
	<path id="Path_76" class="st0" d="M1725.1,586.1L1725.1,586.1L1725.1,586.1L1725.1,586.1z"/>
	<path id="Path_77" class="st0" d="M1636.2,383.7c5.9-4.4,12.1-8.2,18.7-11.4C1648.3,375.5,1642,379.3,1636.2,383.7z"/>
	<path id="Path_78" class="st0" d="M1654.9,372.3c5-2.4,10.2-4.4,15.5-6.1C1665,367.9,1659.9,369.9,1654.9,372.3z"/>
	<path id="Path_79" class="st0" d="M1670.3,366.2c3.6-1.1,7.2-2,10.9-2.8C1677.5,364.2,1673.9,365.1,1670.3,366.2z"/>
	<path id="Path_81" class="st0" d="M1623.8,394.4c-21.3,21.2-33.3,50.1-33.3,80.2c0,3,0.1,6.1,0.4,9.1c-0.2-3-0.4-6-0.4-9.1
		C1590.5,444.5,1602.5,415.6,1623.8,394.4z"/>
	<path id="Path_82" class="st0" d="M1704,361.1c-7.7,0-15.3,0.8-22.8,2.3C1688.7,361.9,1696.4,361.1,1704,361.1z"/>
	<path class="st0" d="M1920,184.9L1599.8,0h-220.8l-375.3,216.8c-29.5,16.9-47.6,48.3-47.6,82.3V805c-0.1,34,18.1,65.4,47.6,82.3
		l438.2,253c8.6,5,18,8.6,27.7,10.7v-125.1L1292,864.9c-23.3-21-41.3-62.2-41.3-93.4v-87.7c-53.6-10.1-92.4-56.9-92.5-111.5v-0.1
		c0,0,0-0.1,0-0.1c0.1-62.7,50.9-113.4,113.5-113.5c62.7,0.1,113.4,50.8,113.5,113.5v0.1v0.1c0,55.1-39.6,102.3-94,111.8v87.1
		c0,20.1,13.1,49.8,28.1,63.5l150.3,136.2V310.5c-53.8-10-92.8-56.9-92.9-111.7v-0.1c0,0,0-0.1,0-0.1c0-62.7,50.8-113.5,113.5-113.5
		c62.7,0,113.5,50.8,113.5,113.5c0,0,0,0.1,0,0.1v0.1c-0.1,55-39.5,102-93.6,111.7v549.1l146.2-132.5c0.9-0.8,1.8-1.7,2.7-2.7
		c0.8-0.9,1.6-1.8,2.4-2.8c0.1-0.1,0.2-0.2,0.2-0.3c7.8-9.4,14.7-22.9,18.8-36c0.1-0.3,0.2-0.6,0.3-0.9c0.3-0.8,0.5-1.7,0.7-2.5
		c0.2-0.6,0.4-1.3,0.5-1.9c0.1-0.6,0.3-1.1,0.4-1.7c0.2-0.9,0.4-1.8,0.6-2.7c0.1-0.4,0.1-0.8,0.2-1.3c0.2-1,0.4-2,0.5-3
		c0.1-0.5,0.1-0.9,0.1-1.3c0.1-0.9,0.2-1.8,0.3-2.7c0.1-1.3,0.2-2.6,0.2-3.8v0v-77.1c-51-9-89.4-51.2-93.6-102.8
		c-0.2-3-0.4-6-0.4-9.1c0-30.1,12-59,33.3-80.2c2.6-2.6,5.3-5,8.1-7.3c1.4-1.2,2.8-2.3,4.3-3.4c10.3-7.7,21.9-13.6,34.2-17.5
		c3.6-1.1,7.2-2,10.9-2.8c7.5-1.5,15.2-2.3,22.8-2.3c7.7,0,15.3,0.8,22.9,2.3c3.7,0.8,7.3,1.7,10.9,2.8c12.3,3.8,23.8,9.7,34.2,17.5
		c1.5,1.1,2.9,2.2,4.3,3.4c48.4,39.8,55.3,111.2,15.5,159.6c-16.9,20.5-40.5,34.5-66.6,39.4l0,0v77.5c0,31.2-18.1,72.3-41.3,93.4
		l-173.5,157.4v236.4c9.5-2,18.6-5.6,27-10.5L1920,919.2V184.9z"/>
</g>
</svg>
