<svg height="512pt" viewBox="0 0 512 512" width="512pt" xmlns="http://www.w3.org/2000/svg"><path d="m162.132812 426.667969h187.734376c14.136718 0 25.597656-11.460938 25.597656-25.601563v-153.601562c0-14.136719-11.460938-25.597656-25.597656-25.597656v-44.136719c0-51.839844-42.027344-93.863281-93.867188-93.863281s-93.867188 42.023437-93.867188 93.863281v44.136719c-14.136718 0-25.597656 11.460937-25.597656 25.597656v153.601562c0 14.140625 11.460938 25.601563 25.597656 25.601563zm17.066407-248.9375c0-42.414063 34.386719-76.796875 76.800781-76.796875s76.800781 34.382812 76.800781 76.796875v44.136719h-17.066406v-44.136719c0-32.988281-26.746094-59.730469-59.734375-59.730469s-59.734375 26.742188-59.734375 59.730469v44.136719h-17.066406zm119.46875 44.136719h-85.335938v-44.136719c0-23.5625 19.105469-42.664063 42.667969-42.664063s42.667969 19.101563 42.667969 42.664063zm-136.535157 17.066406h187.734376c4.710937 0 8.53125 3.820312 8.53125 8.53125v25.601562h-34.132813c-4.710937 0-8.53125 3.820313-8.53125 8.535156 0 4.710938 3.820313 8.53125 8.53125 8.53125h34.132813v25.601563h-34.132813c-4.710937 0-8.53125 3.820313-8.53125 8.53125 0 4.714844 3.820313 8.535156 8.53125 8.535156h34.132813v34.132813h-34.132813c-4.710937 0-8.53125 3.820312-8.53125 8.53125 0 4.714844 3.820313 8.535156 8.53125 8.535156h34.132813v17.066406c0 4.714844-3.820313 8.535156-8.53125 8.535156h-187.734376c-4.710937 0-8.53125-3.820312-8.53125-8.535156v-17.066406h34.132813c4.710937 0 8.53125-3.820312 8.53125-8.535156 0-4.710938-3.820313-8.53125-8.53125-8.53125h-34.132813v-34.132813h34.132813c4.710937 0 8.53125-3.820312 8.53125-8.535156 0-4.710937-3.820313-8.53125-8.53125-8.53125h-34.132813v-25.601563h34.132813c4.710937 0 8.53125-3.820312 8.53125-8.53125 0-4.714843-3.820313-8.535156-8.53125-8.535156h-34.132813v-25.601562c0-4.710938 3.820313-8.53125 8.53125-8.53125zm0 0"/><path d="m230.398438 340.609375v26.390625c.039062 9.375 7.628906 16.960938 17 17h17.203124c9.371094-.039062 16.960938-7.625 17-17v-26.519531c.117188-2.269531 1.050782-4.421875 2.625-6.058594 6.007813-6.609375 9.386719-15.1875 9.5-24.117187-.011718-11.144532-5.050781-21.691407-13.714843-28.703126-8.953125-7.253906-20.695313-10.089843-31.972657-7.722656-14.769531 3.074219-26.246093 14.714844-29.117187 29.523438-2.003906 11.164062 1.265625 22.628906 8.859375 31.054687 1.582031 1.667969 2.511719 3.851563 2.617188 6.152344zm5.300781-34.082031c1.625-7.964844 7.808593-14.210938 15.753906-15.925782 1.511719-.308593 3.054687-.464843 4.597656-.46875 4.804688-.019531 9.460938 1.636719 13.175781 4.683594 4.695313 3.789063 7.425782 9.492188 7.433594 15.523438-.121094 4.757812-1.972656 9.308594-5.207031 12.800781-4.34375 4.742187-6.804687 10.910156-6.917969 17.339844l.066406 26.453125-17.136718.066406v-26.390625c-.097656-6.457031-2.539063-12.652344-6.875-17.433594-4.128906-4.488281-5.9375-10.640625-4.890625-16.648437zm0 0"/><path d="m409.601562 145.066406v-51.199218c0-4.714844-3.820312-8.535157-8.535156-8.535157-4.710937 0-8.53125 3.820313-8.53125 8.535157v51.199218c0 4.714844 3.820313 8.535156 8.53125 8.535156 4.714844 0 8.535156-3.820312 8.535156-8.535156zm0 0"/><path d="m358.398438 93.867188v51.199218c0 4.714844 3.820312 8.535156 8.535156 8.535156 4.710937 0 8.53125-3.820312 8.53125-8.535156v-51.199218c0-4.714844-3.820313-8.535157-8.53125-8.535157-4.714844 0-8.535156 3.820313-8.535156 8.535157zm0 0"/><path d="m426.667969 93.867188v51.199218c0 4.714844 3.820312 8.535156 8.53125 8.535156 4.714843 0 8.535156-3.820312 8.535156-8.535156v-51.199218c0-4.714844-3.820313-8.535157-8.535156-8.535157-4.710938 0-8.53125 3.820313-8.53125 8.535157zm0 0"/><path d="m409.601562 273.066406c0-4.710937-3.820312-8.53125-8.535156-8.53125-4.710937 0-8.53125 3.820313-8.53125 8.53125v51.199219c0 4.714844 3.820313 8.535156 8.53125 8.535156 4.714844 0 8.535156-3.820312 8.535156-8.535156zm0 0"/><path d="m443.734375 324.265625c0 4.714844 3.820313 8.535156 8.53125 8.535156 4.714844 0 8.535156-3.820312 8.535156-8.535156v-51.199219c0-4.710937-3.820312-8.53125-8.535156-8.53125-4.710937 0-8.53125 3.820313-8.53125 8.53125zm0 0"/><path d="m503.464844 264.535156c-4.710938 0-8.53125 3.820313-8.53125 8.53125v51.199219c0 4.714844 3.820312 8.535156 8.53125 8.535156 4.714844 0 8.535156-3.820312 8.535156-8.535156v-51.199219c0-4.710937-3.820312-8.53125-8.535156-8.53125zm0 0"/><path d="m494.933594 85.332031h-17.066406c-9.425782 0-17.066407 7.640625-17.066407 17.066407v34.136718c0 9.425782 7.640625 17.066406 17.066407 17.066406h17.066406c9.425781 0 17.066406-7.640624 17.066406-17.066406v-34.136718c0-9.425782-7.640625-17.066407-17.066406-17.066407zm-17.066406 51.203125v-34.136718h17.066406v34.136718zm0 0"/><path d="m503.464844 179.199219c-4.710938 0-8.53125 3.820312-8.53125 8.535156v51.199219c0 4.710937 3.820312 8.53125 8.53125 8.53125 4.714844 0 8.535156-3.820313 8.535156-8.53125v-51.199219c0-4.714844-3.820312-8.535156-8.535156-8.535156zm0 0"/><path d="m469.332031 247.464844c4.714844 0 8.535157-3.820313 8.535157-8.53125v-51.199219c0-4.714844-3.820313-8.535156-8.535157-8.535156-4.710937 0-8.53125 3.820312-8.53125 8.535156v51.199219c0 4.710937 3.820313 8.53125 8.53125 8.53125zm0 0"/><path d="m426.667969 247.464844c9.425781 0 17.066406-7.640625 17.066406-17.066406v-34.132813c0-9.425781-7.640625-17.066406-17.066406-17.066406h-17.066407c-9.425781 0-17.066406 7.640625-17.066406 17.066406v34.132813c0 9.425781 7.640625 17.066406 17.066406 17.066406zm-17.066407-51.199219h17.066407v34.132813h-17.066407zm0 0"/><path d="m401.066406 358.398438c-4.710937 0-8.53125 3.820312-8.53125 8.535156v51.199218c0 4.714844 3.820313 8.535157 8.53125 8.535157 4.714844 0 8.535156-3.820313 8.535156-8.535157v-51.199218c0-4.714844-3.820312-8.535156-8.535156-8.535156zm0 0"/><path d="m426.667969 366.933594v51.199218c0 4.714844 3.820312 8.535157 8.53125 8.535157 4.714843 0 8.535156-3.820313 8.535156-8.535157v-51.199218c0-4.714844-3.820313-8.535156-8.535156-8.535156-4.710938 0-8.53125 3.820312-8.53125 8.535156zm0 0"/><path d="m494.933594 358.398438h-17.066406c-9.425782 0-17.066407 7.640624-17.066407 17.066406v34.136718c0 9.425782 7.640625 17.066407 17.066407 17.066407h17.066406c9.425781 0 17.066406-7.640625 17.066406-17.066407v-34.136718c0-9.425782-7.640625-17.066406-17.066406-17.066406zm-17.066406 51.203124v-34.136718h17.066406v34.136718zm0 0"/><path d="m110.933594 153.601562c4.710937 0 8.53125-3.820312 8.53125-8.535156v-51.199218c0-4.714844-3.820313-8.535157-8.53125-8.535157-4.714844 0-8.535156 3.820313-8.535156 8.535157v51.199218c0 4.714844 3.820312 8.535156 8.535156 8.535156zm0 0"/><path d="m145.066406 153.601562c4.714844 0 8.535156-3.820312 8.535156-8.535156v-51.199218c0-4.714844-3.820312-8.535157-8.535156-8.535157-4.710937 0-8.53125 3.820313-8.53125 8.535157v51.199218c0 4.714844 3.820313 8.535156 8.53125 8.535156zm0 0"/><path d="m85.332031 145.066406v-51.199218c0-4.714844-3.820312-8.535157-8.53125-8.535157-4.714843 0-8.535156 3.820313-8.535156 8.535157v51.199218c0 4.714844 3.820313 8.535156 8.535156 8.535156 4.710938 0 8.53125-3.820312 8.53125-8.535156zm0 0"/><path d="m110.933594 332.800781c4.710937 0 8.53125-3.820312 8.53125-8.535156v-51.199219c0-4.710937-3.820313-8.53125-8.53125-8.53125-4.714844 0-8.535156 3.820313-8.535156 8.53125v51.199219c0 4.714844 3.820312 8.535156 8.535156 8.535156zm0 0"/><path d="m68.265625 324.265625v-51.199219c0-4.710937-3.820313-8.53125-8.53125-8.53125-4.714844 0-8.535156 3.820313-8.535156 8.53125v51.199219c0 4.714844 3.820312 8.535156 8.535156 8.535156 4.710937 0 8.53125-3.820312 8.53125-8.535156zm0 0"/><path d="m8.535156 332.800781c4.710938 0 8.53125-3.820312 8.53125-8.535156v-51.199219c0-4.710937-3.820312-8.53125-8.53125-8.53125-4.714844 0-8.535156 3.820313-8.535156 8.53125v51.199219c0 4.714844 3.820312 8.535156 8.535156 8.535156zm0 0"/><path d="m17.066406 153.601562h17.066406c9.425782 0 17.066407-7.640624 17.066407-17.066406v-34.136718c0-9.425782-7.640625-17.066407-17.066407-17.066407h-17.066406c-9.425781 0-17.066406 7.640625-17.066406 17.066407v34.136718c0 9.425782 7.640625 17.066406 17.066406 17.066406zm0-51.203124h17.066406v34.136718h-17.066406zm0 0"/><path d="m8.535156 247.464844c4.710938 0 8.53125-3.820313 8.53125-8.53125v-51.199219c0-4.714844-3.820312-8.535156-8.53125-8.535156-4.714844 0-8.535156 3.820312-8.535156 8.535156v51.199219c0 4.710937 3.820312 8.53125 8.535156 8.53125zm0 0"/><path d="m51.199219 187.734375c0-4.714844-3.820313-8.535156-8.53125-8.535156-4.714844 0-8.535157 3.820312-8.535157 8.535156v51.199219c0 4.710937 3.820313 8.53125 8.535157 8.53125 4.710937 0 8.53125-3.820313 8.53125-8.53125zm0 0"/><path d="m68.265625 196.265625v34.132813c0 9.425781 7.640625 17.066406 17.066406 17.066406h17.066407c9.425781 0 17.066406-7.640625 17.066406-17.066406v-34.132813c0-9.425781-7.640625-17.066406-17.066406-17.066406h-17.066407c-9.425781 0-17.066406 7.640625-17.066406 17.066406zm34.132813 34.132813h-17.066407v-34.132813h17.066407zm0 0"/><path d="m102.398438 418.132812c0 4.714844 3.820312 8.535157 8.535156 8.535157 4.710937 0 8.53125-3.820313 8.53125-8.535157v-51.199218c0-4.714844-3.820313-8.535156-8.53125-8.535156-4.714844 0-8.535156 3.820312-8.535156 8.535156zm0 0"/><path d="m76.800781 426.667969c4.710938 0 8.53125-3.820313 8.53125-8.535157v-51.199218c0-4.714844-3.820312-8.535156-8.53125-8.535156-4.714843 0-8.535156 3.820312-8.535156 8.535156v51.199218c0 4.714844 3.820313 8.535157 8.535156 8.535157zm0 0"/><path d="m17.066406 426.667969h17.066406c9.425782 0 17.066407-7.640625 17.066407-17.066407v-34.136718c0-9.425782-7.640625-17.066406-17.066407-17.066406h-17.066406c-9.425781 0-17.066406 7.640624-17.066406 17.066406v34.136718c0 9.425782 7.640625 17.066407 17.066406 17.066407zm0-51.203125h17.066406v34.136718h-17.066406zm0 0"/><path d="m494.933594 68.265625c4.710937 0 8.53125-3.820313 8.53125-8.53125v-51.199219c0-4.714844-3.820313-8.535156-8.53125-8.535156-4.714844 0-8.535156 3.820312-8.535156 8.535156v51.199219c0 4.710937 3.820312 8.53125 8.535156 8.53125zm0 0"/><path d="m460.800781 68.265625c4.710938 0 8.53125-3.820313 8.53125-8.53125v-51.199219c0-4.714844-3.820312-8.535156-8.53125-8.535156-4.714843 0-8.535156 3.820312-8.535156 8.535156v51.199219c0 4.710937 3.820313 8.53125 8.535156 8.53125zm0 0"/><path d="m358.398438 68.265625c4.714843 0 8.535156-3.820313 8.535156-8.53125v-51.199219c0-4.714844-3.820313-8.535156-8.535156-8.535156-4.710938 0-8.53125 3.820312-8.53125 8.535156v51.199219c0 4.710937 3.820312 8.53125 8.53125 8.53125zm0 0"/><path d="m401.066406 68.265625h17.066406c9.425782 0 17.066407-7.640625 17.066407-17.066406v-34.132813c0-9.425781-7.640625-17.066406-17.066407-17.066406h-17.066406c-9.425781 0-17.066406 7.640625-17.066406 17.066406v34.132813c0 9.425781 7.640625 17.066406 17.066406 17.066406zm0-51.199219h17.066406v34.132813h-17.066406zm0 0"/><path d="m298.667969 68.265625h17.066406c9.425781 0 17.066406-7.640625 17.066406-17.066406v-34.132813c0-9.425781-7.640625-17.066406-17.066406-17.066406h-17.066406c-9.425781 0-17.066407 7.640625-17.066407 17.066406v34.132813c0 9.425781 7.640626 17.066406 17.066407 17.066406zm0-51.199219h17.066406v34.132813h-17.066406zm0 0"/><path d="m256 68.265625c4.710938 0 8.535156-3.820313 8.535156-8.53125v-51.199219c0-4.714844-3.824218-8.535156-8.535156-8.535156s-8.535156 3.820312-8.535156 8.535156v51.199219c0 4.710937 3.824218 8.53125 8.535156 8.53125zm0 0"/><path d="m221.867188 68.265625c4.710937 0 8.53125-3.820313 8.53125-8.53125v-51.199219c0-4.714844-3.820313-8.535156-8.53125-8.535156-4.714844 0-8.535157 3.820312-8.535157 8.535156v51.199219c0 4.710937 3.820313 8.53125 8.535157 8.53125zm0 0"/><path d="m17.066406 68.265625c4.714844 0 8.535156-3.820313 8.535156-8.53125v-51.199219c0-4.714844-3.820312-8.535156-8.535156-8.535156-4.710937 0-8.53125 3.820312-8.53125 8.535156v51.199219c0 4.710937 3.820313 8.53125 8.53125 8.53125zm0 0"/><path d="m119.464844 68.265625c4.714844 0 8.535156-3.820313 8.535156-8.53125v-51.199219c0-4.714844-3.820312-8.535156-8.535156-8.535156-4.710938 0-8.53125 3.820312-8.53125 8.535156v51.199219c0 4.710937 3.820312 8.53125 8.53125 8.53125zm0 0"/><path d="m162.132812 68.265625h17.066407c9.425781 0 17.066406-7.640625 17.066406-17.066406v-34.132813c0-9.425781-7.640625-17.066406-17.066406-17.066406h-17.066407c-9.425781 0-17.066406 7.640625-17.066406 17.066406v34.132813c0 9.425781 7.640625 17.066406 17.066406 17.066406zm0-51.199219h17.066407v34.132813h-17.066407zm0 0"/><path d="m59.734375 68.265625h17.066406c9.425781 0 17.066407-7.640625 17.066407-17.066406v-34.132813c0-9.425781-7.640626-17.066406-17.066407-17.066406h-17.066406c-9.425781 0-17.066406 7.640625-17.066406 17.066406v34.132813c0 9.425781 7.640625 17.066406 17.066406 17.066406zm0-51.199219h17.066406v34.132813h-17.066406zm0 0"/><path d="m8.535156 452.265625v51.199219c0 4.714844 3.820313 8.535156 8.53125 8.535156 4.714844 0 8.535156-3.820312 8.535156-8.535156v-51.199219c0-4.710937-3.820312-8.53125-8.535156-8.53125-4.710937 0-8.53125 3.820313-8.53125 8.53125zm0 0"/><path d="m42.667969 452.265625v51.199219c0 4.714844 3.820312 8.535156 8.53125 8.535156 4.714843 0 8.535156-3.820312 8.535156-8.535156v-51.199219c0-4.710937-3.820313-8.53125-8.535156-8.53125-4.710938 0-8.53125 3.820313-8.53125 8.53125zm0 0"/><path d="m145.066406 452.265625v51.199219c0 4.714844 3.820313 8.535156 8.535156 8.535156 4.710938 0 8.53125-3.820312 8.53125-8.535156v-51.199219c0-4.710937-3.820312-8.53125-8.53125-8.53125-4.714843 0-8.535156 3.820313-8.535156 8.53125zm0 0"/><path d="m93.867188 512h17.066406c9.425781 0 17.066406-7.640625 17.066406-17.066406v-34.132813c0-9.425781-7.640625-17.066406-17.066406-17.066406h-17.066406c-9.425782 0-17.066407 7.640625-17.066407 17.066406v34.132813c0 9.425781 7.640625 17.066406 17.066407 17.066406zm0-51.199219h17.066406v34.132813h-17.066406zm0 0"/><path d="m196.265625 443.734375c-9.425781 0-17.066406 7.640625-17.066406 17.066406v34.132813c0 9.425781 7.640625 17.066406 17.066406 17.066406h17.066406c9.425781 0 17.066407-7.640625 17.066407-17.066406v-34.132813c0-9.425781-7.640626-17.066406-17.066407-17.066406zm0 51.199219v-34.132813h17.066406v34.132813zm0 0"/><path d="m247.464844 452.265625v51.199219c0 4.714844 3.824218 8.535156 8.535156 8.535156s8.535156-3.820312 8.535156-8.535156v-51.199219c0-4.710937-3.824218-8.53125-8.535156-8.53125s-8.535156 3.820313-8.535156 8.53125zm0 0"/><path d="m281.601562 452.265625v51.199219c0 4.714844 3.820313 8.535156 8.53125 8.535156 4.714844 0 8.535157-3.820312 8.535157-8.535156v-51.199219c0-4.710937-3.820313-8.53125-8.535157-8.53125-4.710937 0-8.53125 3.820313-8.53125 8.53125zm0 0"/><path d="m503.464844 503.464844v-51.199219c0-4.710937-3.820313-8.53125-8.53125-8.53125-4.714844 0-8.535156 3.820313-8.535156 8.53125v51.199219c0 4.714844 3.820312 8.535156 8.535156 8.535156 4.710937 0 8.53125-3.820312 8.53125-8.535156zm0 0"/><path d="m392.535156 512c4.710938 0 8.53125-3.820312 8.53125-8.535156v-51.199219c0-4.710937-3.820312-8.53125-8.53125-8.53125-4.714844 0-8.535156 3.820313-8.535156 8.53125v51.199219c0 4.714844 3.820312 8.535156 8.535156 8.535156zm0 0"/><path d="m332.800781 443.734375c-9.425781 0-17.066406 7.640625-17.066406 17.066406v34.132813c0 9.425781 7.640625 17.066406 17.066406 17.066406h17.066407c9.425781 0 17.066406-7.640625 17.066406-17.066406v-34.132813c0-9.425781-7.640625-17.066406-17.066406-17.066406zm0 51.199219v-34.132813h17.066407v34.132813zm0 0"/><path d="m435.199219 512h17.066406c9.425781 0 17.066406-7.640625 17.066406-17.066406v-34.132813c0-9.425781-7.640625-17.066406-17.066406-17.066406h-17.066406c-9.425781 0-17.066407 7.640625-17.066407 17.066406v34.132813c0 9.425781 7.640626 17.066406 17.066407 17.066406zm0-51.199219h17.066406v34.132813h-17.066406zm0 0"/></svg>