<svg xmlns="http://www.w3.org/2000/svg" id="Layer_1" viewBox="0 0 1024 3074">
    <style>
        .st0{display:none;fill:#fff;stroke:#231f20;stroke-miterlimit:10}.st1,.st2{fill:#efefef}.st2{display:none}
    </style>
    <path d="M3.1 1536h1019.8v768H3.1zM2.1 2306h1019.8v768H2.1zM2.1 0h1019.8v768H2.1z" class="st0"/>
    <path d="M846.3 626.8c-1.8 9.3-7.1 17.3-15 22.5-16.2 10.9-38.2 6.5-49-9.6-5.3-7.8-7.2-17.3-5.3-26.5 1.8-9.3 7.1-17.3 15-22.5 2.9-2 6.1-3.5 9.4-4.5 3.3-1 6.7-1.5 10.2-1.5 2.3 0 4.6.2 6.9.7 9.3 1.8 17.3 7.1 22.5 15 5.2 7.7 7.1 17.1 5.3 26.4zM985.3 700.4c-16.2 10.9-38.2 6.5-49-9.6-10.9-16.2-6.5-38.2 9.6-49l.9-.6c.2-.1.3-.2.5-.3.3-.2.6-.4.9-.5l1.2-.6c.8-.4 1.6-.8 2.4-1.1.4-.2.8-.3 1.2-.5h.1c.4-.2.8-.3 1.2-.4h.1c.3-.1.7-.2 1-.3.2-.1.4-.1.7-.2.3-.1.6-.2.9-.2.3-.1.6-.1.9-.2.2-.1.4-.1.6-.1.1 0 .2-.1.3-.1h.2c.2 0 .4-.1.6-.1h.1c.2 0 .4-.1.6-.1h.1c.1 0 .2 0 .3-.1h.1c.2 0 .3 0 .5-.1.3 0 .5-.1.8-.1h.1c.3 0 .6-.1.9-.1H967.8c.3 0 .6 0 .9.1h.3c.2 0 .4 0 .6.1.1 0 .3 0 .4.1h.2c.2 0 .4.1.6.1.3.1.7.1 1 .2.3.1.7.1 1 .2.7.1 1.4.3 2.1.5.3.1.7.2 1 .3.7.2 1.3.4 2 .7.7.2 1.3.5 2 .8.7.3 1.3.6 2 1 .3.2.6.3.9.5l1.5.9c.4.2.8.5 1.2.8 0 0 .1 0 .1.1.4.2.7.5 1.1.8l.5.4c.2.1.3.3.5.4.3.2.5.4.8.7.2.1.3.3.5.4l.9.9.1.1.6.6.3.3.1.1c.3.3.6.7.9 1 .1.1.2.3.4.4.2.2.4.4.6.7.5.6.9 1.2 1.4 1.8.2.3.4.6.7.9 10.8 15.6 6.4 37.5-9.7 48.4zM1024 807.5v114.7l-20.8-30.9zM843.8 850.2c-7.8 5.3-17.3 7.2-26.5 5.3-9.3-1.8-17.3-7.1-22.5-15-5.3-7.8-7.2-17.2-5.3-26.5 1.8-9.3 7.1-17.3 15-22.5 3-2 6.1-3.5 9.4-4.5 3.3-1 6.7-1.5 10.2-1.5 2.3 0 4.6.2 6.9.7 9.3 1.8 17.3 7.1 22.5 15 10.8 16.1 6.5 38.1-9.7 49z" class="st1"/>
    <path d="M965.8 679.3c-22.2 14.9-52.5 9-67.4-13.2-15-22.2-9-52.5 13.2-67.4.4-.3.8-.5 1.2-.8.2-.1.4-.3.7-.4.4-.3.8-.5 1.3-.8.5-.3 1.1-.6 1.6-.9 1.1-.6 2.2-1.1 3.3-1.6.5-.2 1.1-.4 1.6-.6h.1c.5-.2 1.1-.4 1.6-.6h.1c.5-.2 1-.3 1.4-.5l.9-.3 1.2-.3 1.2-.3c.3-.1.5-.1.8-.2.2 0 .3-.1.5-.1h.2c.3-.1.6-.1.8-.2h.2c.3-.1.5-.1.8-.1h.2c.1 0 .3 0 .4-.1h.1c.2 0 .4-.1.7-.1.4 0 .8-.1 1.1-.1h.2c.4 0 .8-.1 1.2-.1h.3c.4 0 .7 0 1.1-.1h5.3c.4 0 .8.1 1.2.1h.4c.3 0 .5.1.8.1.2 0 .4 0 .6.1H945c.3 0 .6.1.9.1.5.1 1 .1 1.4.2.5.1 1 .2 1.4.3 1 .2 1.9.4 2.8.7.5.1.9.3 1.4.4.9.3 1.8.6 2.8 1 .9.3 1.8.7 2.7 1.1.9.4 1.8.9 2.8 1.3l1.2.6c.7.4 1.4.8 2 1.2.5.3 1.1.7 1.6 1.1l.1.1c.5.3 1 .7 1.5 1l.8.6c.2.2.5.4.7.6.4.3.7.6 1.1.9.2.2.4.4.7.6.4.4.8.8 1.3 1.2l.1.1.9.9.4.4.1.1c.4.4.9.9 1.3 1.4.2.2.3.4.5.6.3.3.5.6.8.9.6.8 1.3 1.6 1.9 2.5.3.4.6.9.9 1.3 14.9 22.1 9 52.4-13.3 67.3zM1019.1 826.6v157.8l-28.5-42.5zM774.7 578.1c-2.5 12.7-9.8 23.7-20.6 31-22.2 14.9-52.5 9-67.4-13.2-7.2-10.8-9.9-23.7-7.4-36.5s9.8-23.7 20.6-31c4-2.7 8.4-4.8 13-6.2 4.5-1.4 9.3-2.1 14-2.1 3.1 0 6.3.3 9.5.9 12.7 2.5 23.7 9.8 31 20.6 7.2 10.8 9.8 23.7 7.3 36.5zM771.2 885.3c-10.8 7.2-23.7 9.9-36.5 7.3-12.7-2.5-23.7-9.8-31-20.6-7.2-10.8-9.8-23.7-7.3-36.5s9.8-23.7 20.6-31c4.1-2.7 8.4-4.8 13-6.2 4.5-1.4 9.3-2.1 14-2.1 3.1 0 6.3.3 9.5.9 12.7 2.5 23.7 9.8 31 20.6 14.9 22.4 9 52.7-13.3 67.6z" class="st2"/>
    <path d="M1008.2 642.5c-15.8-23.5-47.7-29.8-71.2-14s-29.8 47.7-14 71.2c9.9 14.7 26.1 22.7 42.7 22.7 7.4 0 14.9-1.6 21.9-4.9l20.7 30.8c5.4 8.1 8.1 23.5 5.8 32.9l-22.8 92.2-144.9-215.6c8-7.3 13.5-17 15.6-27.9 2.6-13.4-.1-27.1-7.8-38.5-7.6-11.4-19.3-19.1-32.7-21.7-13.5-2.6-27.1.1-38.5 7.8-11.4 7.6-19.1 19.3-21.8 32.7-2.6 13.4.1 27.1 7.8 38.5 9.9 14.7 26.1 22.7 42.7 22.7 7.2 0 14.5-1.5 21.3-4.7l173.8 258.7-96.5-14.1c-9.6-1.4-22.8-9.8-28.3-17.8l-23.3-34.7c18.4-16.8 22.3-45.2 8-66.5-7.6-11.4-19.3-19.1-32.7-21.7-13.5-2.6-27.1.1-38.5 7.8-5.7 3.8-10.5 8.6-14.2 14.2s-6.3 11.8-7.6 18.5c-2.6 13.4.1 27.1 7.8 38.5 9.9 14.7 26.1 22.7 42.7 22.7 7.2 0 14.4-1.5 21.2-4.6l23.4 34.8c7.9 11.8 25.2 22.7 39.2 24.8l110.9 16.2 5.1 7.6v46l-221.7 15c-15.8 1-30.9-6.3-39.7-19.5L631.5 797.2c-8.8-13.1-9.9-29.9-3-44.1L732 541.9c7-14.2 21-23.6 36.7-24.7l234.7-15.9c7.2-.5 14.2.8 20.6 3.6v238.8c-.1-.3-.3-.5-.4-.8-.1-.1-.1-.2-.2-.4-.1-.3-.3-.5-.4-.8 0 0 0-.1-.1-.1l-.3-.6c-.3-.6-.7-1.1-1-1.6l-20.7-30.9c17.8-16.9 21.5-44.9 7.3-66zM1024 922.2V807.5" class="st1"/>
    <g>
        <path d="M177.7 1392.8c1.8 9.3 7.1 17.3 15 22.5 16.2 10.9 38.2 6.5 49-9.6 5.3-7.8 7.2-17.3 5.3-26.5s-7.1-17.3-15-22.5c-2.9-2-6.1-3.5-9.4-4.5-3.3-1-6.7-1.5-10.2-1.5-2.3 0-4.6.2-6.9.7-9.3 1.8-17.3 7.1-22.5 15-5.2 7.8-7.1 17.2-5.3 26.4zM38.7 1466.4c16.2 10.9 38.2 6.5 49-9.6 10.9-16.2 6.5-38.2-9.6-49l-.9-.6c-.2-.1-.3-.2-.5-.3-.3-.2-.6-.4-.9-.5l-1.2-.6c-.8-.4-1.6-.8-2.4-1.1-.4-.2-.8-.3-1.2-.5h-.1c-.4-.2-.8-.3-1.2-.4h-.1c-.3-.1-.7-.2-1-.3-.2-.1-.4-.1-.7-.2-.3-.1-.6-.2-.9-.2-.3-.1-.6-.1-.9-.2-.2-.1-.4-.1-.6-.1-.1 0-.2-.1-.3-.1h-.1-.1c-.2 0-.4-.1-.6-.1h-.1c-.2 0-.4-.1-.6-.1h-.1c-.1 0-.2 0-.3-.1h-.1c-.2 0-.3 0-.5-.1-.3 0-.5-.1-.8-.1h-.1c-.3 0-.6-.1-.9-.1H56.2c-.3 0-.6 0-.9.1H55c-.2 0-.4 0-.6.1-.1 0-.3 0-.4.1h-.1-.1c-.2 0-.4.1-.6.1-.3.1-.7.1-1 .2-.3.1-.7.1-1 .2-.7.1-1.4.3-2.1.5-.3.1-.7.2-1 .3-.7.2-1.3.4-2 .7-.7.2-1.3.5-2 .8-.7.3-1.3.6-2 1-.3.2-.6.3-.9.5l-1.5.9c-.4.2-.8.5-1.2.8 0 0-.1 0-.1.1-.4.2-.7.5-1.1.8l-.5.4c-.2.1-.3.3-.5.4-.3.2-.5.4-.8.7-.2.1-.3.3-.5.4l-.9.9-.1.1-.6.6-.3.3-.1.1c-.3.3-.6.7-.9 1-.1.1-.2.3-.4.4-.2.2-.4.4-.6.7-.5.6-.9 1.2-1.4 1.8-.2.3-.4.6-.7.9-10.8 15.6-6.4 37.6 9.7 48.4zM0 1573.5v114.7l20.8-30.9zM180.2 1616.2c7.8 5.3 17.3 7.2 26.5 5.3 9.3-1.8 17.3-7.1 22.5-15 5.3-7.8 7.2-17.2 5.3-26.5s-7.1-17.3-15-22.5c-3-2-6.1-3.5-9.4-4.5-3.3-1-6.7-1.5-10.2-1.5-2.3 0-4.6.2-6.9.7-9.3 1.8-17.3 7.1-22.5 15-10.8 16.1-6.5 38.1 9.7 49z" class="st1"/>
        <path d="M58.2 1445.3c22.3 14.9 52.5 9 67.4-13.2 15-22.2 9-52.5-13.2-67.4-.4-.3-.8-.5-1.2-.8-.2-.1-.4-.3-.7-.4-.4-.3-.8-.5-1.3-.8-.5-.3-1.1-.6-1.6-.9-1.1-.6-2.2-1.1-3.3-1.6-.5-.2-1.1-.4-1.6-.6h-.1c-.5-.2-1.1-.4-1.6-.6h-.1c-.5-.2-1-.3-1.4-.5l-.9-.3-1.2-.3-1.2-.3c-.3-.1-.5-.1-.8-.2-.2 0-.3-.1-.5-.1h-.1-.1c-.3-.1-.6-.1-.8-.2h-.2c-.3-.1-.5-.1-.8-.1h-.2c-.1 0-.3 0-.4-.1h-.1c-.2 0-.4-.1-.7-.1-.4 0-.8-.1-1.1-.1h-.2c-.4 0-.8-.1-1.2-.1h-.3c-.4 0-.7 0-1.1-.1h-5.3c-.4 0-.8.1-1.2.1h-.4c-.3 0-.5.1-.8.1-.2 0-.4 0-.6.1H79c-.3 0-.6.1-.9.1-.5.1-1 .1-1.4.2-.5.1-1 .2-1.4.3-1 .2-1.9.4-2.8.7-.5.1-.9.3-1.4.4-.9.3-1.8.6-2.8 1-.9.3-1.8.7-2.7 1.1-.9.4-1.8.9-2.8 1.3l-1.2.6c-.7.4-1.4.8-2 1.2-.5.3-1.1.7-1.6 1.1l-.1.1c-.5.3-1 .7-1.5 1l-.8.6c-.2.2-.5.4-.7.6-.4.3-.7.6-1.1.9-.2.2-.4.4-.7.6-.4.4-.8.8-1.3 1.2l-.1.1-.9.9-.4.4-.1.1c-.4.4-.9.9-1.3 1.4-.2.2-.3.4-.5.6-.3.3-.5.6-.8.9-.6.8-1.3 1.6-1.9 2.5-.3.4-.6.9-.9 1.3-14.9 22.2-9 52.4 13.3 67.3zM4.9 1592.6v157.8l28.5-42.5zM249.3 1344.1c2.5 12.7 9.8 23.7 20.6 31 22.2 14.9 52.5 9 67.4-13.2 7.2-10.8 9.9-23.7 7.4-36.5s-9.8-23.7-20.6-31c-4-2.7-8.4-4.8-13-6.2-4.5-1.4-9.3-2.1-14-2.1-3.1 0-6.3.3-9.5.9-12.7 2.5-23.7 9.8-31 20.6-7.2 10.8-9.8 23.8-7.3 36.5zM252.8 1651.3c10.8 7.2 23.7 9.9 36.5 7.3 12.7-2.5 23.7-9.8 31-20.6 7.2-10.8 9.8-23.7 7.3-36.5s-9.8-23.7-20.6-31c-4.1-2.7-8.4-4.8-13-6.2-4.5-1.4-9.3-2.1-14-2.1-3.1 0-6.3.3-9.5.9-12.7 2.5-23.7 9.8-31 20.6-14.9 22.4-9 52.7 13.3 67.6z" class="st2"/>
        <path d="M15.8 1408.5c15.8-23.5 47.7-29.8 71.2-14s29.8 47.7 14 71.2c-9.9 14.7-26.1 22.7-42.7 22.7-7.4 0-14.9-1.6-21.9-4.9l-20.7 30.8c-5.4 8.1-8.1 23.5-5.8 32.9l22.8 92.2 144.8-215.6c-8-7.3-13.5-17-15.6-27.9-2.6-13.4.1-27.1 7.8-38.5 7.6-11.4 19.3-19.1 32.7-21.7 13.5-2.6 27.1.1 38.5 7.8 11.4 7.6 19.1 19.3 21.8 32.7 2.6 13.4-.1 27.1-7.8 38.5-9.9 14.7-26.1 22.7-42.7 22.7-7.2 0-14.5-1.5-21.3-4.7L17.1 1691.4l96.5-14.1c9.6-1.4 22.8-9.8 28.3-17.8l23.3-34.7c-18.4-16.8-22.3-45.2-8-66.5 7.6-11.4 19.3-19.1 32.7-21.7 13.5-2.6 27.1.1 38.5 7.8 5.7 3.8 10.5 8.6 14.2 14.2 3.7 5.5 6.3 11.8 7.6 18.5 2.6 13.4-.1 27.1-7.8 38.5-9.9 14.7-26.1 22.7-42.7 22.7-7.2 0-14.4-1.5-21.2-4.6l-23.4 34.8c-7.9 11.8-25.2 22.7-39.2 24.8l-110.8 16-5.1 7.6v46l221.7 15c15.8 1 30.9-6.3 39.7-19.5l131.1-195.2c8.8-13.1 9.9-29.9 3-44.1L292 1307.9c-7-14.2-21-23.6-36.7-24.7l-234.7-15.9c-7.2-.5-14.2.8-20.6 3.6v238.8c.1-.3.3-.5.4-.8.1-.1.1-.2.2-.4.1-.3.3-.5.4-.8 0 0 0-.1.1-.1l.3-.6c.3-.6.7-1.1 1-1.6l20.7-30.9c-17.8-16.9-21.5-44.9-7.3-66zM0 1573.5v114.7" class="st1"/>
    </g>
    <g>
        <path d="M846.3 2166c-1.8 9.3-7.1 17.3-15 22.5-16.2 10.9-38.2 6.5-49-9.6-5.3-7.8-7.2-17.3-5.3-26.5 1.8-9.3 7.1-17.3 15-22.5 2.9-2 6.1-3.5 9.4-4.5 3.3-1 6.7-1.5 10.2-1.5 2.3 0 4.6.2 6.9.7 9.3 1.8 17.3 7.1 22.5 15 5.2 7.7 7.1 17.1 5.3 26.4zM985.3 2239.6c-16.2 10.9-38.2 6.5-49-9.6-10.9-16.2-6.5-38.2 9.6-49l.9-.6c.2-.1.3-.2.5-.3.3-.2.6-.4.9-.5l1.2-.6c.8-.4 1.6-.8 2.4-1.1.4-.2.8-.3 1.2-.5h.1c.4-.2.8-.3 1.2-.4h.1c.3-.1.7-.2 1-.3.2-.1.4-.1.7-.2.3-.1.6-.2.9-.2.3-.1.6-.1.9-.2.2-.1.4-.1.6-.1.1 0 .2-.1.3-.1h.2c.2 0 .4-.1.6-.1h.1c.2 0 .4-.1.6-.1h.1c.1 0 .2 0 .3-.1h.1c.2 0 .3 0 .5-.1.3 0 .5-.1.8-.1h.1c.3 0 .6-.1.9-.1H967.8c.3 0 .6 0 .9.1h.3c.2 0 .4 0 .6.1.1 0 .3 0 .4.1h.2c.2 0 .4.1.6.1.3.1.7.1 1 .2.3.1.7.1 1 .2.7.1 1.4.3 2.1.5.3.1.7.2 1 .3.7.2 1.3.4 2 .7.7.2 1.3.5 2 .8.7.3 1.3.6 2 1 .3.2.6.3.9.5l1.5.9c.4.2.8.5 1.2.8 0 0 .1 0 .1.1.4.2.7.5 1.1.8l.5.4c.2.1.3.3.5.4.3.2.5.4.8.7.2.1.3.3.5.4l.9.9.1.1.6.6.3.3.1.1c.3.3.6.7.9 1 .1.1.2.3.4.4.2.2.4.4.6.7.5.6.9 1.2 1.4 1.8.2.3.4.6.7.9 10.8 15.5 6.4 37.5-9.7 48.4zM1024 2346.7v114.7l-20.8-30.9zM843.8 2389.3c-7.8 5.3-17.3 7.2-26.5 5.3-9.3-1.8-17.3-7.1-22.5-15-5.3-7.8-7.2-17.2-5.3-26.5 1.8-9.3 7.1-17.3 15-22.5 3-2 6.1-3.5 9.4-4.5 3.3-1 6.7-1.5 10.2-1.5 2.3 0 4.6.2 6.9.7 9.3 1.8 17.3 7.1 22.5 15 10.8 16.2 6.5 38.2-9.7 49z" class="st1"/>
        <path d="M965.8 2218.5c-22.2 14.9-52.5 9-67.4-13.2-15-22.2-9-52.5 13.2-67.4.4-.3.8-.5 1.2-.8.2-.1.4-.3.7-.4.4-.3.8-.5 1.3-.8.5-.3 1.1-.6 1.6-.9 1.1-.6 2.2-1.1 3.3-1.6.5-.2 1.1-.4 1.6-.6h.1c.5-.2 1.1-.4 1.6-.6h.1c.5-.2 1-.3 1.4-.5l.9-.3 1.2-.3 1.2-.3c.3-.1.5-.1.8-.2.2 0 .3-.1.5-.1h.2c.3-.1.6-.1.8-.2h.2c.3-.1.5-.1.8-.1h.2c.1 0 .3 0 .4-.1h.1c.2 0 .4-.1.7-.1.4 0 .8-.1 1.1-.1h.2c.4 0 .8-.1 1.2-.1h.3c.4 0 .7 0 1.1-.1h5.3c.4 0 .8.1 1.2.1h.4c.3 0 .5.1.8.1.2 0 .4 0 .6.1H945c.3 0 .6.1.9.1.5.1 1 .1 1.4.2.5.1 1 .2 1.4.3 1 .2 1.9.4 2.8.7.5.1.9.3 1.4.4.9.3 1.8.6 2.8 1 .9.3 1.8.7 2.7 1.1.9.4 1.8.9 2.8 1.3l1.2.6c.7.4 1.4.8 2 1.2.5.3 1.1.7 1.6 1.1l.1.1c.5.3 1 .7 1.5 1l.8.6c.2.2.5.4.7.6.4.3.7.6 1.1.9.2.2.4.4.7.6.4.4.8.8 1.3 1.2l.1.1.9.9.4.4.1.1c.4.4.9.9 1.3 1.4.2.2.3.4.5.6.3.3.5.6.8.9.6.8 1.3 1.6 1.9 2.5.3.4.6.9.9 1.3 14.9 22.1 9 52.3-13.3 67.3zM1019.1 2365.8v157.8l-28.5-42.5zM774.7 2117.2c-2.5 12.7-9.8 23.7-20.6 31-22.2 14.9-52.5 9-67.4-13.2-7.2-10.8-9.9-23.7-7.4-36.5s9.8-23.7 20.6-31c4-2.7 8.4-4.8 13-6.2 4.5-1.4 9.3-2.1 14-2.1 3.1 0 6.3.3 9.5.9 12.7 2.5 23.7 9.8 31 20.6 7.2 10.9 9.8 23.8 7.3 36.5zM771.2 2424.5c-10.8 7.2-23.7 9.9-36.5 7.3-12.7-2.5-23.7-9.8-31-20.6-7.2-10.8-9.8-23.7-7.3-36.5s9.8-23.7 20.6-31c4.1-2.7 8.4-4.8 13-6.2 4.5-1.4 9.3-2.1 14-2.1 3.1 0 6.3.3 9.5.9 12.7 2.5 23.7 9.8 31 20.6 14.9 22.4 9 52.6-13.3 67.6z" class="st2"/>
        <path d="M1008.2 2181.6c-15.8-23.5-47.7-29.8-71.2-14s-29.8 47.7-14 71.2c9.9 14.7 26.1 22.7 42.7 22.7 7.4 0 14.9-1.6 21.9-4.9l20.7 30.8c5.4 8.1 8.1 23.5 5.8 32.9l-22.8 92.2L846.4 2197c8-7.3 13.5-17 15.6-27.9 2.6-13.4-.1-27.1-7.8-38.5-7.6-11.4-19.3-19.1-32.7-21.7-13.5-2.6-27.1.1-38.5 7.8-11.4 7.6-19.1 19.3-21.8 32.7-2.6 13.4.1 27.1 7.8 38.5 9.9 14.7 26.1 22.7 42.7 22.7 7.2 0 14.5-1.5 21.3-4.7l173.8 258.7-96.5-14.1c-9.6-1.4-22.8-9.8-28.3-17.8l-23.3-34.7c18.4-16.8 22.3-45.2 8-66.5-7.6-11.4-19.3-19.1-32.7-21.7-13.5-2.6-27.1.1-38.5 7.8-5.7 3.8-10.5 8.6-14.2 14.2-3.7 5.5-6.3 11.8-7.6 18.5-2.6 13.4.1 27.1 7.8 38.5 9.9 14.7 26.1 22.7 42.7 22.7 7.2 0 14.4-1.5 21.2-4.6l23.4 34.8c7.9 11.8 25.2 22.7 39.2 24.8l110.9 16.2 5.1 7.6v46l-221.7 15c-15.8 1-30.9-6.3-39.7-19.5l-131.1-195.2c-8.8-13.1-9.9-29.9-3-44.1L732 2081.3c7-14.2 21-23.6 36.7-24.7l234.7-15.9c7.2-.5 14.2.8 20.6 3.6v238.8c-.1-.3-.3-.5-.4-.8-.1-.1-.1-.2-.2-.4-.1-.3-.3-.5-.4-.8 0 0 0-.1-.1-.1l-.3-.6c-.3-.6-.7-1.1-1-1.6l-20.7-30.9c17.8-17.2 21.5-45.1 7.3-66.3zM1024 2461.4v-114.7" class="st1"/>
    </g>
</svg>
