<svg xmlns="http://www.w3.org/2000/svg" width="157.365" height="30" viewBox="0 0 157.365 30">
  <g id="Group_32" data-name="Group 32" transform="translate(-69 -50.7)">
    <path id="Path_1" data-name="Path 1" d="M100.682,77.287a2.836,2.836,0,0,0,2.335,2.565A2.841,2.841,0,0,1,100.682,77.287Z" transform="translate(-15.841 -13.294)" fill="none"/>
    <path id="Path_2" data-name="Path 2" d="M105.286,86.84c0-.01,0-.021,0-.032C105.289,86.819,105.288,86.829,105.286,86.84Z" transform="translate(-18.143 -18.054)" fill="none"/>
    <path id="Path_3" data-name="Path 3" d="M92.828,57.4a2.837,2.837,0,0,1,2.832,2.831v0a2.833,2.833,0,1,0-5.665,0v0A2.837,2.837,0,0,1,92.828,57.4Z" transform="translate(-10.498 -3.349)" fill="none"/>
    <path id="Path_4" data-name="Path 4" d="M105.236,87.045c0-.014.007-.028.009-.042C105.243,87.017,105.24,87.031,105.236,87.045Z" transform="translate(-18.118 -18.152)" fill="none"/>
    <path id="Path_5" data-name="Path 5" d="M104.148,89.165c-.02.024-.04.048-.061.069C104.108,89.212,104.128,89.189,104.148,89.165Z" transform="translate(-17.544 -19.233)" fill="none"/>
    <path id="Path_6" data-name="Path 6" d="M105.322,86.627c0-.011,0-.022,0-.033C105.324,86.605,105.323,86.616,105.322,86.627Z" transform="translate(-18.161 -17.947)" fill="none"/>
    <path id="Path_7" data-name="Path 7" d="M105.174,87.247c.007-.021.012-.041.018-.062C105.186,87.205,105.18,87.226,105.174,87.247Z" transform="translate(-18.087 -18.243)" fill="none"/>
    <path id="Path_8" data-name="Path 8" d="M105.344,86.365c0-.033,0-.064,0-.095C105.348,86.3,105.347,86.332,105.344,86.365Z" transform="translate(-18.172 -17.785)" fill="none"/>
    <path id="Path_9" data-name="Path 9" d="M106.328,71.17h0a2.823,2.823,0,0,1,.57.058A2.823,2.823,0,0,0,106.328,71.17Z" transform="translate(-18.664 -10.235)" fill="none"/>
    <path id="Path_10" data-name="Path 10" d="M108.782,71.729a2.859,2.859,0,0,1,.467.284A2.859,2.859,0,0,0,108.782,71.729Z" transform="translate(-19.891 -10.515)" fill="none"/>
    <path id="Path_11" data-name="Path 11" d="M107.469,71.285q.138.028.271.07Q107.607,71.314,107.469,71.285Z" transform="translate(-19.235 -10.293)" fill="none"/>
    <path id="Path_12" data-name="Path 12" d="M109.687,74.65a2.837,2.837,0,0,1-2.307,2.782,2.83,2.83,0,0,0,1.275-4.967A2.829,2.829,0,0,1,109.687,74.65Z" transform="translate(-19.19 -10.883)" fill="none"/>
    <path id="Path_13" data-name="Path 13" d="M108.011,71.425a2.859,2.859,0,0,1,.386.152A2.859,2.859,0,0,0,108.011,71.425Z" transform="translate(-19.506 -10.363)" fill="none"/>
    <path id="Path_14" data-name="Path 14" d="M104.221,88.254a2.788,2.788,0,0,0,.469-.9A2.807,2.807,0,0,1,104.221,88.254Z" transform="translate(-17.611 -18.328)" fill="none"/>
    <path id="Path_15" data-name="Path 15" d="M81.92,76.048a2.837,2.837,0,0,1,2.833,2.83v0a2.833,2.833,0,1,0-5.665,0v0A2.837,2.837,0,0,1,81.92,76.048Z" transform="translate(-5.044 -12.672)" fill="none"/>
    <path id="Path_16" data-name="Path 16" d="M86.43,93.238l3.749,3.4v0l-3.749-3.4a2.538,2.538,0,0,1-.7-1.585v0A2.538,2.538,0,0,0,86.43,93.238Z" transform="translate(-8.365 -20.475)" fill="none"/>
    <g id="Group_1" data-name="Group 1" transform="translate(69 50.7)">
      <circle id="Ellipse_1" data-name="Ellipse 1" cx="1.819" cy="1.819" r="1.819" transform="translate(6.057 13.685)" fill="#333"/>
      <circle id="Ellipse_2" data-name="Ellipse 2" cx="1.819" cy="1.819" r="1.819" transform="translate(16.845 11.248)" fill="#333"/>
      <circle id="Ellipse_3" data-name="Ellipse 3" cx="1.819" cy="1.819" r="1.819" transform="translate(11.511 4.362)" fill="#333"/>
      <path id="Path_17" data-name="Path 17" d="M94.43,57.333,83.5,51.017a2.381,2.381,0,0,0-2.376,0l-10.93,6.315A2.367,2.367,0,0,0,69,59.387V72.012a2.362,2.362,0,0,0,1.188,2.054l10.935,6.315a2.4,2.4,0,0,0,.691.267V77.526l-4.431-4.017a3.539,3.539,0,0,1-1.031-2.33V68.991a2.832,2.832,0,0,1-2.307-2.782v0a2.833,2.833,0,1,1,5.665,0v0A2.835,2.835,0,0,1,77.365,69v2.174a2.538,2.538,0,0,0,.7,1.584l3.749,3.4V59.672A2.838,2.838,0,0,1,79.5,56.886v0a2.833,2.833,0,1,1,5.665,0v0a2.834,2.834,0,0,1-2.335,2.786v13.7l3.648-3.307c.022-.021.045-.044.068-.068s.041-.045.061-.069l.006-.007a2.807,2.807,0,0,0,.469-.9L87.087,69c.006-.021.012-.041.017-.062s.009-.033.013-.049.007-.028.009-.042.011-.044.016-.066,0-.021,0-.032.01-.049.013-.073,0-.022,0-.034.006-.045.007-.067,0-.064,0-.1h0V66.559a2.836,2.836,0,0,1-2.335-2.565c-.006-.075-.009-.15-.009-.226a2.823,2.823,0,0,1,.831-2q.1-.1.2-.183c.035-.028.07-.057.107-.084a2.816,2.816,0,0,1,.852-.436q.133-.041.271-.07a2.822,2.822,0,0,1,.57-.058h0a2.823,2.823,0,0,1,.57.058q.138.028.271.07a2.816,2.816,0,0,1,.852.436c.036.027.072.055.107.084a2.83,2.83,0,0,1-1.275,4.967h0v1.934a3.537,3.537,0,0,1-1.032,2.33l-4.33,3.929v5.9a2.256,2.256,0,0,0,.673-.263l10.935-6.315a2.383,2.383,0,0,0,1.188-2.054V59.387A2.4,2.4,0,0,0,94.43,57.333Z" transform="translate(-69 -50.7)" fill="#333"/>
    </g>
    <path id="Path_18" data-name="Path 18" d="M93.234,69.9a2.83,2.83,0,0,0,1.275-4.967c-.035-.028-.071-.057-.107-.084a2.817,2.817,0,0,0-.853-.436q-.133-.041-.271-.07a2.856,2.856,0,0,0-1.14,0q-.138.028-.271.07a2.816,2.816,0,0,0-.852.436c-.037.027-.072.055-.107.084q-.1.087-.2.183a2.823,2.823,0,0,0-.831,2c0,.076,0,.151.01.226a2.841,2.841,0,0,0,2.335,2.565v1.925h0c0,.03,0,.063,0,.1s0,.044-.007.067,0,.022,0,.033-.008.049-.013.074,0,.021,0,.032-.01.044-.016.066-.006.028-.009.042-.009.033-.013.049-.011.041-.018.062l-.007.024a2.789,2.789,0,0,1-.469.9l-.006.006c-.02.024-.04.047-.06.069s-.046.047-.068.067l-3.648,3.307V63.021a2.823,2.823,0,1,0-1.013,0V79.516l-3.749-3.4a2.538,2.538,0,0,1-.7-1.585V72.348a2.839,2.839,0,1,0-1.013-.009v2.188a3.549,3.549,0,0,0,1.031,2.33l4.431,4.021V84a2.243,2.243,0,0,0,.5.051A2.408,2.408,0,0,0,87.871,84V78.1l4.33-3.929a3.547,3.547,0,0,0,1.032-2.33V69.9h0ZM81.92,71.376a1.819,1.819,0,1,1,1.819-1.819A1.82,1.82,0,0,1,81.92,71.376Zm5.454-9.322a1.819,1.819,0,1,1,1.819-1.819A1.82,1.82,0,0,1,87.374,62.054Zm5.333,6.886a1.819,1.819,0,1,1,1.819-1.819A1.82,1.82,0,0,1,92.708,68.94Z" transform="translate(-5.044 -3.353)" fill="#fff"/>
    <path id="Path_19" data-name="Path 19" d="M105.3,86.734c0-.024.009-.049.013-.074C105.305,86.685,105.3,86.71,105.3,86.734Z" transform="translate(-18.148 -17.981)" fill="#fff"/>
    <path id="Path_20" data-name="Path 20" d="M105.209,87.136c0-.017.009-.033.014-.049C105.218,87.1,105.213,87.119,105.209,87.136Z" transform="translate(-18.105 -18.194)" fill="#fff"/>
    <path id="Path_21" data-name="Path 21" d="M105.329,86.527c0-.022.006-.045.007-.067C105.335,86.482,105.332,86.5,105.329,86.527Z" transform="translate(-18.165 -17.88)" fill="#fff"/>
    <path id="Path_22" data-name="Path 22" d="M105.159,87.333l.007-.024Z" transform="translate(-18.08 -18.305)" fill="#fff"/>
    <path id="Path_23" data-name="Path 23" d="M105.255,86.937c.005-.022.011-.044.016-.066C105.266,86.893,105.26,86.915,105.255,86.937Z" transform="translate(-18.128 -18.086)" fill="#fff"/>
    <path id="Path_24" data-name="Path 24" d="M104.209,89.159l.006-.006Z" transform="translate(-17.605 -19.226)" fill="#fff"/>
    <path id="Path_25" data-name="Path 25" d="M102.325,72.648q.1-.1.2-.183Q102.421,72.552,102.325,72.648Z" transform="translate(-16.663 -10.883)" fill="#fff"/>
    <path id="Path_26" data-name="Path 26" d="M83.7,91.649v0a3.539,3.539,0,0,0,1.031,2.331L89.166,98l-4.431-4.021A3.549,3.549,0,0,1,83.7,91.649Z" transform="translate(-7.352 -20.475)" fill="#fff"/>
    <path id="Path_27" data-name="Path 27" d="M89.995,63.068v0a2.838,2.838,0,0,0,2.317,2.786v0A2.838,2.838,0,0,1,89.995,63.068Z" transform="translate(-10.498 -6.184)" fill="#fff"/>
    <path id="Path_28" data-name="Path 28" d="M96.655,65.852v0A2.834,2.834,0,0,0,98.99,63.07v0A2.834,2.834,0,0,1,96.655,65.852Z" transform="translate(-13.828 -6.184)" fill="#fff"/>
    <path id="Path_29" data-name="Path 29" d="M85.73,84.5v0a2.835,2.835,0,0,0,2.344-2.791v0A2.84,2.84,0,0,1,85.73,84.5Z" transform="translate(-8.365 -15.507)" fill="#fff"/>
    <path id="Path_30" data-name="Path 30" d="M104.02,89.3c-.022.024-.045.047-.068.067C103.975,89.35,104,89.327,104.02,89.3Z" transform="translate(-17.476 -19.302)" fill="#fff"/>
    <path id="Path_31" data-name="Path 31" d="M79.088,81.714v0A2.832,2.832,0,0,0,81.4,84.5v0A2.837,2.837,0,0,1,79.088,81.714Z" transform="translate(-5.044 -15.507)" fill="#fff"/>
    <path id="Path_32" data-name="Path 32" d="M107.379,82.4h0Z" transform="translate(-19.189 -15.85)" fill="#fff"/>
    <path id="Path_33" data-name="Path 33" d="M102.941,72.013a2.859,2.859,0,0,1,.467-.284A2.859,2.859,0,0,0,102.941,72.013Z" transform="translate(-16.971 -10.515)" fill="#fff"/>
    <path id="Path_34" data-name="Path 34" d="M103.875,71.577a2.832,2.832,0,0,1,.385-.152A2.832,2.832,0,0,0,103.875,71.577Z" transform="translate(-17.438 -10.363)" fill="#fff"/>
    <path id="Path_35" data-name="Path 35" d="M104.646,71.355q.133-.041.271-.07Q104.779,71.313,104.646,71.355Z" transform="translate(-17.823 -10.293)" fill="#fff"/>
    <path id="Path_36" data-name="Path 36" d="M105.352,86.269h0Z" transform="translate(-18.176 -17.785)" fill="#fff"/>
    <path id="Path_37" data-name="Path 37" d="M101.494,72.831a2.823,2.823,0,0,0-.831,2c0,.076,0,.151.009.226-.006-.075-.009-.15-.009-.226A2.823,2.823,0,0,1,101.494,72.831Z" transform="translate(-15.832 -11.066)" fill="#fff"/>
    <path id="Path_38" data-name="Path 38" d="M105.758,71.17a2.821,2.821,0,0,0-.57.058,2.821,2.821,0,0,1,.57-.058Z" transform="translate(-18.094 -10.235)" fill="#fff"/>
    <g id="Group_2" data-name="Group 2" transform="translate(100.099 56.934)" style="isolation: isolate">
      <path id="Path_39" data-name="Path 39" d="M146.493,81.338a.627.627,0,0,1-.642.642h-3.334a.758.758,0,0,1-.275-.061.468.468,0,0,1-.306-.244q-2.08-3.243-6.209-9.666v9.329a.621.621,0,0,1-.184.458.587.587,0,0,1-.428.184h-3.272a.627.627,0,0,1-.643-.642V63.811a.627.627,0,0,1,.643-.642h3.272a.588.588,0,0,1,.306.092.6.6,0,0,1,.214.183v.03h.031q2.08,3.273,6.27,9.818V63.811a.623.623,0,0,1,.184-.459.587.587,0,0,1,.428-.183h3.273a.625.625,0,0,1,.459.183.748.748,0,0,1,.214.459Z" transform="translate(-131.199 -63.169)" fill="#333"/>
      <path id="Path_40" data-name="Path 40" d="M168.822,74V65.708a2.507,2.507,0,0,1,2.539-2.539h10.216a2.419,2.419,0,0,1,1.774.734,2.47,2.47,0,0,1,.765,1.8V81.369a.643.643,0,0,1-.214.459.587.587,0,0,1-.428.184H180.2a.621.621,0,0,1-.459-.184.692.692,0,0,1-.184-.459V76.536h-6.179v4.833a.641.641,0,0,1-.214.459.586.586,0,0,1-.428.184h-3.273a.623.623,0,0,1-.459-.184.692.692,0,0,1-.184-.459Zm4.8-2.385a.587.587,0,0,0,.428.183h4.833a.625.625,0,0,0,.459-.183.589.589,0,0,0,.183-.429V68.277a.627.627,0,0,0-.643-.643h-4.833a.585.585,0,0,0-.428.184.622.622,0,0,0-.184.459v2.905A.587.587,0,0,0,173.624,71.611Z" transform="translate(-150.011 -63.169)" fill="#333"/>
      <path id="Path_41" data-name="Path 41" d="M219.965,67.023a.587.587,0,0,1-.183.428.625.625,0,0,1-.459.183H209.167v2.722h8.167a2.433,2.433,0,0,1,1.744.7,2.5,2.5,0,0,1,.8,1.712v6.821a2.506,2.506,0,0,1-.8,1.712,2.434,2.434,0,0,1-1.744.7H205.253a.627.627,0,0,1-.643-.642V78.157a.586.586,0,0,1,.184-.428.579.579,0,0,1,.459-.214h10.155V74.853h-8.2a2.561,2.561,0,0,1-2.539-2.477v-6.76a2.423,2.423,0,0,1,.765-1.743,2.539,2.539,0,0,1,1.774-.7h12.082a.625.625,0,0,1,.459.183.745.745,0,0,1,.214.459Z" transform="translate(-167.905 -63.169)" fill="#333"/>
      <path id="Path_42" data-name="Path 42" d="M255.477,69.929a.493.493,0,0,1-.183.4.693.693,0,0,1-.459.153h-3.212a.65.65,0,0,1-.428-.153.469.469,0,0,1-.214-.4v-1.5A.526.526,0,0,0,250.8,68a.7.7,0,0,0-.4-.215h-5.139a.719.719,0,0,0-.428.215.578.578,0,0,0-.153.428v8.595a.649.649,0,0,0,.153.428.586.586,0,0,0,.428.184H250.4a.585.585,0,0,0,.428-.184.649.649,0,0,0,.153-.428v-1.5a.468.468,0,0,1,.214-.4.587.587,0,0,1,.428-.183H254.8a.623.623,0,0,1,.459.183.493.493,0,0,1,.184.4v4.1a2.419,2.419,0,0,1-.734,1.774,2.522,2.522,0,0,1-1.8.734H242.692a2.56,2.56,0,0,1-2.539-2.477V65.769a2.56,2.56,0,0,1,2.539-2.477h10.246a2.417,2.417,0,0,1,1.774.734,2.674,2.674,0,0,1,.764,1.835Z" transform="translate(-185.676 -63.23)" fill="#333"/>
      <path id="Path_43" data-name="Path 43" d="M291.754,67.084a.586.586,0,0,1-.184.428.623.623,0,0,1-.459.184H280.957v2.691h8.717a.551.551,0,0,1,.428.214.649.649,0,0,1,.152.428v3.181a.776.776,0,0,1-.152.459.587.587,0,0,1-.428.184h-8.717v2.692h10.155a.627.627,0,0,1,.642.642V81.4a.627.627,0,0,1-.642.642H277.134a.627.627,0,0,1-.643-.642V63.872a.627.627,0,0,1,.643-.643h13.978a.627.627,0,0,1,.642.643Z" transform="translate(-203.845 -63.199)" fill="#333"/>
      <path id="Path_44" data-name="Path 44" d="M330.938,81.338a.627.627,0,0,1-.642.642h-3.334a.758.758,0,0,1-.276-.061.468.468,0,0,1-.305-.244q-2.08-3.243-6.21-9.666v9.329a.623.623,0,0,1-.183.458.587.587,0,0,1-.428.184h-3.272a.627.627,0,0,1-.642-.642V63.811a.627.627,0,0,1,.642-.642h3.272a.588.588,0,0,1,.306.092.6.6,0,0,1,.214.183v.03h.03q2.08,3.273,6.271,9.818V63.811a.623.623,0,0,1,.184-.459.587.587,0,0,1,.428-.183h3.273a.623.623,0,0,1,.459.183.745.745,0,0,1,.214.459Z" transform="translate(-223.422 -63.169)" fill="#333"/>
      <path id="Path_45" data-name="Path 45" d="M368.5,67.023a.587.587,0,0,1-.184.428.55.55,0,0,1-.428.214h-4.741v13.7a.578.578,0,0,1-.215.459.585.585,0,0,1-.428.184h-3.211a.627.627,0,0,1-.643-.642v-13.7h-4.741a.681.681,0,0,1-.642-.643V63.811a.627.627,0,0,1,.642-.642h13.978a.587.587,0,0,1,.428.183.623.623,0,0,1,.184.459Z" transform="translate(-242.233 -63.169)" fill="#333"/>
    </g>
  </g>
</svg>
