<svg xmlns="http://www.w3.org/2000/svg" id="Layer_1" viewBox="0 0 3605.3 800">
    <style>
        .st0{fill:none;stroke:#fff;stroke-width:16;stroke-miterlimit:10}.st1{fill:#333}.st2{fill:#fff}.st3{fill:none;stroke:#8ec640;stroke-width:16;stroke-miterlimit:10}.st4{font-family:&apos;Monk&apos;}.st5{font-size:680px}
    </style>
    <path d="M279.5 387.3c0 21.8-17.7 39.5-39.5 39.5s-39.5-17.7-39.5-39.5 17.7-39.5 39.5-39.5 39.5 17.7 39.5 39.5z" class="st1"/>
    <path d="M358.4 145.4c-21.8 0-39.5 17.7-39.5 39.5s17.7 39.5 39.5 39.5 39.5-17.7 39.5-39.5-17.7-39.5-39.5-39.5zm0 0c-21.8 0-39.5 17.7-39.5 39.5s17.7 39.5 39.5 39.5 39.5-17.7 39.5-39.5-17.7-39.5-39.5-39.5zm115.8 149.5c-21.8 0-39.5 17.7-39.5 39.5s17.7 39.5 39.5 39.5 39.5-17.7 39.5-39.5-17.7-39.5-39.5-39.5zm146.9-100.2L383.7 57.6c-15.9-9.2-35.6-9.2-51.6 0L94.8 194.7c-16 9.2-25.8 26.2-25.8 44.6v274.1c0 18.5 9.8 35.4 25.8 44.6l237.4 137.1c4.7 2.7 9.8 4.7 15 5.8v-67.8L251 545.8c-12.6-11.5-22.4-33.7-22.4-50.6v-47.5c-28.5-5.4-50.1-30.4-50.1-60.4 0-33.9 27.6-61.5 61.5-61.5s61.5 27.6 61.5 61.5c0 30.3-22 55.5-50.9 60.6v47.3c0 10.9 7.1 27 15.2 34.4l81.4 73.8v-358c-28.6-5.3-50.3-30.4-50.3-60.5 0-33.9 27.6-61.5 61.5-61.5s61.5 27.6 61.5 61.5c0 30.2-21.9 55.4-50.7 60.5V543l79.2-71.8c7.9-7.2 15.2-23.6 15.2-34.4V395c-28.9-5-50.9-30.3-50.9-60.6 0-33.9 27.6-61.5 61.5-61.5s61.5 27.6 61.5 61.5c0 30-21.6 55.1-50.1 60.4v42c0 16.9-9.8 39.2-22.4 50.6l-94 85.3v128.1c5.1-1.1 10-3 14.6-5.7L621.2 558c15.9-9.2 25.8-26.3 25.8-44.6V239.3c-.2-18.4-10-35.4-25.9-44.6zM474.2 294.9c-21.8 0-39.5 17.7-39.5 39.5s17.7 39.5 39.5 39.5 39.5-17.7 39.5-39.5-17.7-39.5-39.5-39.5zM358.4 145.4c-21.8 0-39.5 17.7-39.5 39.5s17.7 39.5 39.5 39.5 39.5-17.7 39.5-39.5-17.7-39.5-39.5-39.5z" class="st1"/>
    <path d="M474.2 272.9c-33.9 0-61.5 27.6-61.5 61.5 0 30.3 22 55.5 50.9 60.6v41.8c0 10.7-7.2 27.1-15.2 34.4L369.2 543V245.5c28.8-5.1 50.7-30.3 50.7-60.5 0-33.9-27.6-61.5-61.5-61.5s-61.5 27.6-61.5 61.5c0 30.1 21.7 55.2 50.3 60.5v358l-81.4-73.8c-8.1-7.4-15.2-23.5-15.2-34.4V448c28.9-5 50.9-30.3 50.9-60.6 0-33.9-27.6-61.5-61.5-61.5s-61.5 27.6-61.5 61.5c0 30 21.6 55.1 50.1 60.4v47.5c0 16.9 9.8 39.2 22.4 50.6l96.2 87.2v67.8c3.5.8 7.1 1.1 10.8 1.1 3.8 0 7.5-.4 11.2-1.2V572.7l94-85.3c12.6-11.5 22.4-33.7 22.4-50.6v-42c28.5-5.4 50.1-30.4 50.1-60.4 0-33.9-27.6-61.5-61.5-61.5zM240 426.8c-21.8 0-39.5-17.7-39.5-39.5s17.7-39.5 39.5-39.5 39.5 17.7 39.5 39.5-17.7 39.5-39.5 39.5zm118.4-202.4c-21.8 0-39.5-17.7-39.5-39.5s17.7-39.5 39.5-39.5 39.5 17.7 39.5 39.5-17.7 39.5-39.5 39.5zm115.8 149.5c-21.8 0-39.5-17.7-39.5-39.5s17.7-39.5 39.5-39.5 39.5 17.7 39.5 39.5-17.7 39.5-39.5 39.5z" class="st2"/>
    <text class="st1 st4 st5" transform="translate(744.17 595.117)">
        nascent
    </text>
</svg>
