<svg id="Layer_5" enable-background="new 0 0 64 64" height="512" viewBox="0 0 64 64" width="512" xmlns="http://www.w3.org/2000/svg"><path d="m59 32v-4h-4.787l2.069-2.069-1.493-2.465c.154-.33.293-.662.417-.995l2.794-.687v-7.568l-2.794-.687c-.123-.333-.262-.665-.417-.995l1.493-2.465-5.352-5.352-2.465 1.493c-.331-.154-.663-.293-.995-.416l-.686-2.794h-7.568l-.687 2.794c-.332.123-.664.262-.995.416l-2.466-1.492-5.352 5.352 1.507 2.488c-.283.685-.67 1.734-.927 2.442h-12.022c1.667-1.467 2.726-3.61 2.726-6 0-4.411-3.589-8-8-8s-8 3.589-8 8c0 2.518 1.172 4.765 2.997 6.233-4 .914-6.997 4.494-6.997 8.767v10c0 2.757 2.243 5 5 5v20c0 2.206 1.794 4 4 4 1.2 0 2.266-.542 3-1.382.734.84 1.8 1.382 3 1.382 2.206 0 4-1.794 4-4v-36c0-.552.449-1 1-1h9.664c.159.436.369.997.557 1.446l-1.503 2.485 2.068 2.069h-4.786v4h-4v28h16.126c.445 1.724 2.013 3 3.874 3s3.428-1.276 3.874-3h16.126v-28zm-2-2v24h-13v-21h2.784l.687-2.794c.332-.123.664-.262.995-.416l2.466 1.492 1.281-1.282zm-50-21c0-3.309 2.691-6 6-6s6 2.691 6 6-2.691 6-6 6-6-2.691-6-6zm11 14v36c0 1.103-.897 2-2 2s-2-.897-2-2v-24h-2v24c0 1.103-.897 2-2 2s-2-.897-2-2v-38h-2v16c-1.654 0-3-1.346-3-3v-10c0-3.859 3.14-7 7-7h23.5c.827 0 1.5.673 1.5 1.5s-.673 1.5-1.5 1.5h-12.5c-1.654 0-3 1.346-3 3zm18.21-6.688c.765-3.104 3.545-5.312 6.79-5.312 3.86 0 7 3.141 7 7s-3.14 7-7 7c-2.944 0-5.564-1.882-6.559-4.617.35-.545.559-1.189.559-1.883 0-.832-.304-1.586-.79-2.188zm-2.71 5.688c.466 0 .91-.096 1.317-.262 1.446 3.153 4.641 5.262 8.183 5.262 4.962 0 9-4.037 9-9s-4.038-9-9-9c-3.931 0-7.329 2.523-8.533 6.153-.309-.09-.629-.153-.967-.153h-1.073c.332-.899.677-1.797.81-2.055l.258-.498-1.255-2.073 3.134-3.133 2.073 1.255.499-.259c.574-.298 1.154-.541 1.725-.722l.536-.169.577-2.346h4.432l.577 2.347.536.169c.571.181 1.151.424 1.725.722l.499.259 2.073-1.255 3.134 3.133-1.255 2.074.259.498c.296.571.54 1.152.722 1.727l.17.534 2.344.576v4.432l-2.345.577-.17.534c-.182.574-.425 1.155-.722 1.727l-.259.498 1.255 2.074-3.134 3.133-2.073-1.255-.499.259c-.574.298-1.154.541-1.725.722l-.536.169-.576 2.346h-4.432l-.577-2.345-.534-.17c-.573-.182-1.154-.425-1.727-.723l-.499-.259-2.073 1.255-3.134-3.134 1.255-2.072-.258-.498c-.1-.194-.266-.604-.438-1.055h.701zm-4.5 8h4.786l1.282 1.282 2.466-1.492c.33.154.662.293.995.416l.687 2.794h2.784v21h-13zm32 28h-16v1c0 1.103-.897 2-2 2s-2-.897-2-2v-1h-16v-24h2v22h32v-22h2z"/><path d="m43 23c2.757 0 5-2.243 5-5s-2.243-5-5-5-5 2.243-5 5 2.243 5 5 5zm0-8c1.654 0 3 1.346 3 3s-1.346 3-3 3-3-1.346-3-3 1.346-3 3-3z"/><path d="m49 34h6v2h-6z"/><path d="m46 38h9v2h-9z"/><path d="m46 42h9v2h-9z"/><path d="m46 46h9v2h-9z"/><path d="m46 50h9v2h-9z"/><path d="m31 34h6v2h-6z"/><path d="m31 38h9v2h-9z"/><path d="m31 42h9v2h-9z"/><path d="m31 46h9v2h-9z"/><path d="m31 50h9v2h-9z"/></svg>